<?xml version="1.0" encoding="utf-8"?>
<!-- Generator: Adobe Illustrator 18.0.0, SVG Export Plug-In . SVG Version: 6.00 Build 0)  -->
<!DOCTYPE svg PUBLIC "-//W3C//DTD SVG 1.1//EN" "http://www.w3.org/Graphics/SVG/1.1/DTD/svg11.dtd">
<svg version="1.1" id="Camada_1" xmlns="http://www.w3.org/2000/svg" xmlns:xlink="http://www.w3.org/1999/xlink" x="0px" y="0px"
	 viewBox="0 0 395.9 108.1" enable-background="new 0 0 395.9 108.1" xml:space="preserve">
<g>
	<path d="M112.2,61.3l-1.4-10L107.7,32c-0.2-0.7-0.3-1-1.2-1H100c-0.6,0-0.9,0.5-0.8,1l6.7,35.8c0.5,2.7,1.5,3.1,3.7,3.1h3.5
		c1.9,0,3.1-0.4,4.3-3l16.8-35.8c0.2-0.4,0.2-1-0.5-1h-6.9c-0.9,0-1.2,0.1-1.6,0.9l-8.6,19.5l-4,9.9H112.2L112.2,61.3z M147.1,40.3
		c-9.5,0-16.1,6.9-16.1,19.4c0,7.5,3.9,11.7,12.1,11.7c10.3,0,16.2-7.4,16.2-18.7C159.3,44.8,155.2,40.3,147.1,40.3L147.1,40.3z
		 M146.3,47.3c3.4,0,4.6,2.3,4.6,5.7c0,6.1-2.2,11.5-6.9,11.5c-3.2,0-4.7-1.9-4.7-5.7C139.4,52.1,141.8,47.3,146.3,47.3L146.3,47.3z
		 M177.8,47.1c2.8,0,3.6,1.3,3.6,2.7c0,2.4-1.5,3.5-7.4,3.5c-0.7,0-1.6-0.1-2.4-0.1C172.4,48.8,175.1,47.1,177.8,47.1L177.8,47.1z
		 M174.1,71.4c3,0,8.1-0.6,11.1-2.4c0.7-0.4,0.9-0.9,0.6-1.4l-1.8-4.5c-0.3-0.6-0.5-0.7-1.4-0.4c-2,0.7-5,1.4-6.9,1.4
		c-4.3-0.1-5.4-1.1-4.9-5.2c1.6,0.2,3.1,0.3,4.5,0.3c9.7,0,14-3.4,14-10.5c0-5.2-3.6-8.5-11.1-8.5c-9,0-15.8,6.4-15.8,19.6
		C162.5,67.6,166.9,71.4,174.1,71.4L174.1,71.4z"/>
	<path d="M218.7,71.4c9,0,15.8-3.9,15.8-12.5c0-6.6-4.9-9.6-11.4-12.5c-4.3-1.9-5.8-3.2-5.8-4.7c0-1.9,1.3-3.6,4.9-3.6
		c2.9,0,6.4,0.7,9.6,1.8c0.9,0.2,1.3,0.3,1.8-0.9l1.4-4.3c0.4-1.2,0.3-1.5-0.6-1.9c-3-1.6-7.6-2.5-11.7-2.5
		c-9.2,0-14.3,4.6-14.3,11.6c0,5.5,4.3,8.8,11.5,12.3c3.9,1.9,5.4,2.9,5.4,4.9c0,2.1-1.3,4.4-6.4,4.4c-3.7,0-7.9-1.4-10.7-2.7
		c-0.9-0.4-1.2-0.3-1.6,0.6l-2.2,4.5c-0.5,1-0.4,1.3,0.1,1.7C208.2,70.4,213.9,71.4,218.7,71.4L218.7,71.4z M252.5,47.1
		c2.8,0,3.6,1.3,3.6,2.7c0,2.4-1.5,3.5-7.4,3.5c-0.7,0-1.6-0.1-2.4-0.1C247.1,48.8,249.8,47.1,252.5,47.1L252.5,47.1z M248.8,71.4
		c3,0,8.1-0.6,11.1-2.4c0.7-0.4,0.9-0.9,0.6-1.4l-1.8-4.5c-0.3-0.6-0.5-0.7-1.4-0.4c-2,0.7-5,1.4-6.9,1.4c-4.3-0.1-5.4-1.1-4.9-5.2
		c1.6,0.2,3.1,0.3,4.5,0.3c9.7,0,14-3.4,14-10.5c0-5.2-3.6-8.5-11.1-8.5c-9,0-15.8,6.4-15.8,19.6C237.2,67.6,241.6,71.4,248.8,71.4
		L248.8,71.4z M274.1,69.8l3.1-22.4c1.1-0.2,2.9-0.3,3.7-0.3c5.3,0,5.8,2.7,5.2,7.4l-2.2,15.3c-0.2,0.9,0.2,1,1.1,1h5.7
		c1.1,0,1.1-0.2,1.3-1l2.1-15c0.4-2.5,0.5-4.7,0.1-6.5c1.2-0.6,3.9-1,5.3-1c5,0,5.6,2.7,4.9,7.9l-2.1,14.6c-0.2,0.9,0.2,1,1,1h5.7
		c1,0,1.1-0.2,1.2-1l2.2-15.5c1.1-8.2-1.6-14-11.1-14c-3.6,0-7.6,1.1-10.3,2.7c-2.2-1.9-5.3-2.7-9.8-2.7c-2.2,0-6.4,0.3-7.7,0.6
		c-2.9,0.7-3.7,2.2-4.1,4.7l-3.4,24.2c-0.2,0.9,0.2,1,1,1h5.7C273.7,70.8,273.9,70.6,274.1,69.8L274.1,69.8L274.1,69.8z M331.5,47.5
		c3.6,0,5.6,1.5,5.6,6c0,7.7-3.6,10.7-7.6,10.7c-1.1,0-2.7-0.1-4.4-0.6l2.2-15.5C328.4,47.7,330.4,47.5,331.5,47.5L331.5,47.5z
		 M322.5,81.4l1.5-10.8c2.2,0.5,3.9,0.7,6.1,0.7c10,0,15.2-8.1,15.2-18.3c0-7.3-2.9-12.6-12.2-12.6c-3.9,0-8.3,0.6-12.1,2.3
		c-1,0.5-1.2,0.9-1.4,1.8l-5.2,37c-0.2,0.9,0.2,1,1,1h5.7C322.2,82.4,322.4,82.2,322.5,81.4L322.5,81.4z M351.9,47l-3.1,22.6
		c-0.2,1.1,0.3,1.2,1.1,1.2h5.3c1,0,1.3-0.1,1.5-1.2l3.2-22.6c2.7,0.2,4.8,0.2,8,0.7c1,0.2,1.5,0.2,1.6-1l0.9-5
		c0.2-1.2-0.1-1.4-1.3-1.4c-3.8-0.2-7.7-0.1-12,0.4C353,41.3,352.6,42.9,351.9,47L351.9,47z M384.3,47.1c2.8,0,3.6,1.3,3.6,2.7
		c0,2.4-1.5,3.5-7.4,3.5c-0.7,0-1.6-0.1-2.4-0.1C378.8,48.8,381.6,47.1,384.3,47.1L384.3,47.1z M380.5,71.4c3,0,8.1-0.6,11.1-2.4
		c0.7-0.4,0.9-0.9,0.6-1.4l-1.8-4.5c-0.3-0.6-0.5-0.7-1.4-0.4c-2,0.7-5,1.4-6.9,1.4c-4.3-0.1-5.4-1.1-4.9-5.2
		c1.6,0.2,3.1,0.3,4.5,0.3c9.7,0,14-3.4,14-10.5c0-5.2-3.6-8.5-11.1-8.5c-9,0-15.8,6.4-15.8,19.6C369,67.6,373.3,71.4,380.5,71.4
		L380.5,71.4z"/>
	<path fill="#EF7D00" d="M154.3,101.6l8-16.7c0.1-0.2,0.1-0.3-0.1-0.3h-1.8c-0.3,0-0.4,0-0.5,0.3l-5.3,11.3l-1.7,3.9h-0.1
		c-0.1-0.3-0.7-3.7-0.8-4c-0.3-1.4-2.1-11.1-2.1-11.3c-0.1-0.2-0.2-0.3-0.4-0.3h-1.7c-0.2,0-0.3,0.1-0.3,0.3l3.4,16.7
		c0.2,0.8,0.4,1,1.2,1h1.1C153.8,102.5,153.9,102.3,154.3,101.6L154.3,101.6z M165.6,84c-0.9,0-1.7,0.8-1.7,1.7
		c0,0.7,0.5,1.3,1.2,1.3c0.8,0,1.7-0.8,1.7-1.7C166.8,84.5,166.3,84,165.6,84L165.6,84z M164.1,102.1l1.8-12.7
		c0.1-0.3-0.1-0.4-0.4-0.4h-1.3c-0.3,0-0.4,0.1-0.5,0.4l-1.8,12.7c-0.1,0.3,0.1,0.4,0.4,0.4h1.3C163.9,102.5,164,102.5,164.1,102.1
		L164.1,102.1z M175.2,88.8c-5,0-7,4-7,9.1c0,2.7,1.3,4.9,5,4.9c1.5,0,3.6-0.2,5.1-0.8c0.3-0.1,0.4-0.3,0.4-0.5
		c0.5-3.8,1-7.4,1.6-11.4c0.1-0.4,0.1-0.6-0.5-0.8C178,88.9,176.3,88.8,175.2,88.8L175.2,88.8z M173.8,100.9c-2.5,0-3.4-1.1-3.4-3.2
		c0-5.3,2.4-7,4.8-7c0.8,0,1.9,0.1,2.8,0.4c-0.5,3.2-0.9,6.1-1.3,9.4C175.8,100.8,174.6,100.9,173.8,100.9L173.8,100.9z
		 M192.4,102.4l1.7-12.2c0-0.2-0.1-0.4-0.2-0.5c-1.4-0.6-3.2-0.8-4.7-0.8c-4.7,0-7.1,3.5-7.1,8.5c0,3.3,1.3,5.5,4.7,5.5
		c0.9,0,2.3-0.2,3.4-0.6c-0.4,2.9-1,3.8-3.5,3.8c-1.1,0-2.6-0.3-3.6-0.6c-0.3-0.1-0.4-0.1-0.6,0.2l-0.4,1.2
		c-0.2,0.3-0.1,0.3,0.3,0.5c0.9,0.4,2.8,0.7,4.3,0.7C191.5,108.1,192,105.2,192.4,102.4L192.4,102.4z M189,90.7
		c0.8,0,1.9,0.1,2.8,0.4c-0.2,1.4-1.1,7.8-1.3,9.2c-1.3,0.4-2.6,0.5-3.2,0.5c-2,0-3-1.3-3-3.7C184.3,92.8,186.5,90.7,189,90.7
		L189,90.7z M202.5,90.7c1.9,0,2.5,0.9,2.5,1.9c0,1.6-1.1,2.4-4.6,2.4c-0.6,0-1.4,0-2.1-0.1C198.8,92.1,200.2,90.7,202.5,90.7
		L202.5,90.7z M200.8,102.8c1.3,0,2.8-0.2,4.1-0.9c0.2-0.1,0.3-0.3,0.2-0.5l-0.5-1.1c-0.1-0.2-0.2-0.2-0.4-0.1
		c-0.8,0.4-1.8,0.7-2.9,0.7c-2.3,0-3.2-1-3.1-3.3c0-0.3,0-0.7,0.1-1.1c0.8,0.1,1.6,0.2,2.3,0.2c4.4,0,6.5-1.3,6.5-4.4
		c0-1.5-1-3.5-4.4-3.5c-3.7,0-6.7,2.7-6.7,8.8C196,101.2,197.5,102.8,200.8,102.8L200.8,102.8z M219,102.1l0.9-6.9
		c0.7-4.6-0.9-6.5-5.2-6.5c-0.8,0-2.3,0.1-3.1,0.2c-1.1,0.2-1.7,0.8-1.8,1.9l-1.6,11.2c-0.1,0.3,0.1,0.4,0.4,0.4h1.4
		c0.3,0,0.4-0.1,0.4-0.4L212,91c1.1-0.2,1.9-0.2,2.3-0.2c3.4,0,3.9,1.5,3.5,4.6l-1,6.8c0,0.3,0.1,0.4,0.4,0.4h1.4
		C218.9,102.5,218.9,102.5,219,102.1L219,102.1z M226.6,102.8c2.7,0,5.2-1.2,5.2-4c0-2.2-1.7-3.2-3.6-4c-1.9-0.8-2.6-1.3-2.6-2.2
		c0-1.1,0.8-1.9,2.5-1.9c1.1,0,2,0.1,3.2,0.6c0.2,0.1,0.3,0.1,0.4-0.1l0.5-1.2c0.1-0.2,0.1-0.4-0.2-0.5c-1.2-0.5-2.4-0.7-3.8-0.7
		c-3.1,0-4.8,1.5-4.8,3.9c0,1.7,1.2,2.8,3.5,3.7c1.7,0.7,2.8,1.3,2.8,2.4c0,1.4-1.2,2.1-2.9,2.1c-1.2,0-2.6-0.3-3.9-0.9
		c-0.3-0.1-0.4-0.1-0.6,0.2l-0.5,1.1c-0.1,0.3-0.1,0.5,0.1,0.5C223.2,102.5,225.1,102.8,226.6,102.8L226.6,102.8z M247.5,90.7
		c1.9,0,2.5,0.9,2.5,1.9c0,1.6-1.1,2.4-4.6,2.4c-0.6,0-1.4,0-2.1-0.1C243.8,92.1,245.2,90.7,247.5,90.7L247.5,90.7z M245.8,102.8
		c1.3,0,2.8-0.2,4.1-0.9c0.2-0.1,0.3-0.3,0.2-0.5l-0.5-1.1c-0.1-0.2-0.2-0.2-0.4-0.1c-0.8,0.4-1.8,0.7-2.9,0.7c-2.3,0-3.2-1-3.1-3.3
		c0-0.3,0-0.7,0.1-1.1c0.8,0.1,1.6,0.2,2.3,0.2c4.4,0,6.5-1.3,6.5-4.4c0-1.5-1-3.5-4.4-3.5c-3.7,0-6.7,2.7-6.7,8.8
		C241,101.2,242.5,102.8,245.8,102.8L245.8,102.8z M266.3,86.7l-2.2,15.4c0,0.4,0.1,0.5,0.5,0.5h1.3c0.4,0,0.5-0.1,0.5-0.5l2.2-15.4
		h5c0.3,0,0.4-0.1,0.4-0.4l0.2-1.3c0.1-0.3,0-0.4-0.3-0.4h-12.2c-0.3,0-0.3,0.1-0.4,0.4l-0.2,1.3c0,0.3,0,0.4,0.3,0.4H266.3
		L266.3,86.7z M274.3,89.4l-0.9,7c-0.7,4.6,0.4,6.4,4.9,6.4c0.8,0,2.2-0.1,3.2-0.2c1.1-0.2,1.7-0.8,1.8-1.9l1.6-11.2
		c0.1-0.3-0.1-0.4-0.3-0.4h-1.4c-0.3,0-0.4,0.1-0.4,0.4l-1.6,11.2c-1.1,0.2-2.1,0.2-2.4,0.2c-3.3,0-3.6-1.2-3.2-4.5l0.9-6.9
		c0.1-0.3-0.1-0.4-0.3-0.4h-1.4C274.5,89,274.4,89.1,274.3,89.4L274.3,89.4z M288.3,90.9l-1.6,11.3c0,0.3,0.1,0.4,0.4,0.4h1.4
		c0.3,0,0.4-0.1,0.4-0.4l1.6-11.4c1.2,0,2.7,0.1,3.9,0.2c0.3,0,0.5,0.1,0.6-0.4l0.2-1.3c0.1-0.5-0.1-0.6-0.5-0.6c-1.3,0-3,0-4.6,0.3
		C288.8,89.1,288.5,89.7,288.3,90.9L288.3,90.9z M299.5,84c-0.9,0-1.7,0.8-1.7,1.7c0,0.7,0.5,1.3,1.2,1.3c0.8,0,1.7-0.8,1.7-1.7
		C300.8,84.5,300.2,84,299.5,84L299.5,84z M298,102.1l1.8-12.7c0.1-0.3-0.1-0.4-0.4-0.4h-1.3c-0.3,0-0.4,0.1-0.5,0.4l-1.8,12.7
		c-0.1,0.3,0.1,0.4,0.4,0.4h1.3C297.9,102.5,297.9,102.5,298,102.1L298,102.1z M306.2,102.8c2.7,0,5.2-1.2,5.2-4
		c0-2.2-1.7-3.2-3.6-4c-1.9-0.8-2.6-1.3-2.6-2.2c0-1.1,0.8-1.9,2.5-1.9c1.1,0,2,0.1,3.2,0.6c0.2,0.1,0.3,0.1,0.4-0.1l0.5-1.2
		c0.1-0.2,0.1-0.4-0.2-0.5c-1.2-0.5-2.4-0.7-3.8-0.7c-3.1,0-4.8,1.5-4.8,3.9c0,1.7,1.2,2.8,3.5,3.7c1.7,0.7,2.8,1.3,2.8,2.4
		c0,1.4-1.2,2.1-2.9,2.1c-1.2,0-2.6-0.3-3.9-0.9c-0.3-0.1-0.4-0.1-0.6,0.2l-0.5,1.1c-0.1,0.3-0.1,0.5,0.1,0.5
		C302.7,102.5,304.6,102.8,306.2,102.8L306.2,102.8z M332.2,102.2l1-7.1c0.5-3.6-0.3-6.3-4.4-6.3c-1.8,0-3.8,0.5-5.1,1.4
		c-0.9-1-2-1.4-4-1.4c-0.7,0-2.5,0.1-2.9,0.2c-1.3,0.3-1.7,0.9-1.9,2.1l-1.5,11c-0.1,0.3,0.1,0.4,0.4,0.4h1.4c0.3,0,0.4-0.1,0.4-0.4
		l1.6-11.2c0.6-0.2,2-0.2,2.5-0.2c3.2,0,3.4,1.8,3,4.5l-1,6.9c0,0.3,0.1,0.4,0.4,0.4h1.4c0.3,0,0.4-0.1,0.4-0.4l1-6.9
		c0.2-1.4,0.3-2.6-0.1-3.6c0.9-0.5,2.5-0.9,3.6-0.9c2.9,0,3.2,1.6,2.8,4.6l-0.9,6.8c-0.1,0.3,0.1,0.4,0.4,0.4h1.4
		C332.1,102.5,332.1,102.5,332.2,102.2L332.2,102.2z M342.5,88.8c-3.7,0-6.8,3.1-6.8,8.8c0,3.4,1.8,5.2,5,5.2c4.2,0,6.8-3.4,6.8-8.6
		C347.6,90.7,345.8,88.8,342.5,88.8L342.5,88.8z M342.3,90.7c2.3,0,3,1.5,3,3.5c0,3.1-1.1,6.8-4.4,6.8c-2.2,0-3.1-1.4-3.1-3.5
		C337.9,94,339.2,90.7,342.3,90.7L342.3,90.7z"/>
	<path fill-rule="evenodd" clip-rule="evenodd" d="M12.9,38C-28.2-4.5,35.3-8,114.7,11C50.8,6.2,10.4,15.2,12.9,38L12.9,38z"/>
	<path fill-rule="evenodd" clip-rule="evenodd" fill="#EF7D00" d="M119.9,13.1C37.3,10.6-2.6,31.7,46.7,75
		C45.3,44.1,61.3,25.2,122,15.4l1.7,2.1l0.8,0l-0.3-2.2c0.8,0,10.7-0.2,10.8-0.1l0.6,2l-1.4,8.9l1.7-0.3l3.8-8.9
		c0.6-1.3,1.2-2.3,1.5-2.4l5.5-0.5c1.2-0.3,2.8-0.5,3.8-1.1c1.7-1.1,0.3-2.3-1-2.7c-1.3-0.4-1.3-0.7-3-0.5l-7.3,0.8L124.8,5
		c-0.8-0.3-2.9-1-3.5-1.4h-0.5l-1.1,0.8l8.5,5.4l3.2,2.3l-5.9,0.8l-2.1-3l-1.3,0l0.2,2.6l-3.7-1.6l-1.1,0.2L119.9,13.1L119.9,13.1z"
		/>
</g>
</svg>
