<?xml version="1.0" encoding="utf-8"?>
<!-- Generator: Adobe Illustrator 18.0.0, SVG Export Plug-In . SVG Version: 6.00 Build 0)  -->
<!DOCTYPE svg PUBLIC "-//W3C//DTD SVG 1.1//EN" "http://www.w3.org/Graphics/SVG/1.1/DTD/svg11.dtd">
<svg version="1.1" id="Camada_1" xmlns="http://www.w3.org/2000/svg" xmlns:xlink="http://www.w3.org/1999/xlink" x="0px" y="0px"
	 viewBox="0 0 502.2 112.9" enable-background="new 0 0 502.2 112.9" xml:space="preserve">
<path fill="#3C3C3B" d="M259,90.5c5.4,3.7,13,6.4,21.4,6.4c11.4,0,21.9-6.7,21.9-19c0-7.5-4.3-13-14.8-18.9
	c-12.9-6.9-20.1-15-20.1-25.9c0-18,15.6-29.7,34.2-29.7c9.7,0,17.1,3,20.7,5.4l-4.5,10c-3.1-1.8-9.4-4.8-17.5-4.6
	c-12.4,0-19.9,8.2-19.9,16.5c0,8.2,5.1,12.9,15.6,18.7c12.4,6.6,19.3,14.5,19.3,27c0,17.5-13.8,31.2-36.4,31.2
	c-10.2,0-20.1-3.3-24.3-6.9L259,90.5z"/>
<path fill="#3C3C3B" d="M320,106.1l13.9-72.5h12.4l-13.9,72.5H320z M336.1,13.4c0-4.8,3.7-8.4,8.2-8.4c4.5,0,7.3,3.3,7.3,7.8
	c-0.2,4.9-3.6,8.4-8.4,8.4C339,21.1,336.1,17.8,336.1,13.4"/>
<path fill="#3C3C3B" d="M383,14.1l-3.8,19.5h17.4l-1.9,9.7h-17.4l-6.7,35.2c-0.7,4-1.3,7.8-1.3,11.7c0,4.3,2.1,6.9,6.9,6.9
	c2.1,0,4.2-0.1,5.8-0.5l-0.6,9.7c-2.2,0.9-6,1.3-9.6,1.3c-11.1,0-15.3-6.7-15.3-14.1c0-4.2,0.4-8.4,1.5-13.6l7.2-36.7h-10.5l2-9.7
	H367l3.2-16.3L383,14.1z"/>
<path fill="#3C3C3B" d="M442.2,101.9c-5.4,3.1-14.2,5.7-24,5.7c-19.2,0-27.6-13-27.6-29.1c0-21.9,16.2-46.6,39.5-46.6
	c13.8,0,21.3,8.2,21.3,18.6c0,19-21.4,24.1-48.2,23.7c-0.6,3.2-0.1,9.9,1.5,13.8c2.8,6.4,8.7,9.7,16.2,9.7c8.5,0,15-2.7,19.5-5.1
	L442.2,101.9z M428.4,41.7c-11.8,0-20.7,11.5-23.7,22.9c19.5,0.1,34.7-2.4,34.7-13.6C439.5,45,435,41.7,428.4,41.7"/>
<path fill="#3C3C3B" d="M454.6,93.5c3.4,2.1,9.7,4.5,15.6,4.5c8.4,0,13.8-5.4,13.8-11.8c0-5.7-2.6-9.1-10-13.3
	c-8.4-4.6-13-11.1-13-18.4c0-12.7,10.9-22.5,26.2-22.5c6.6,0,12.4,1.8,15.1,3.6l-3.4,9.4c-2.5-1.5-7.2-3.3-12.6-3.3
	c-7.5,0-12.9,4.6-12.9,10.9c0,5.2,3.4,8.5,9.9,12.1c8.1,4.6,13.6,10.9,13.6,19c0,15.3-12.4,23.8-27.7,23.8c-7.8,0-14.7-2.4-18-4.9
	L454.6,93.5z"/>
<path fill="#C3265D" d="M98.7,105.2c-10.2,3.1-26.2,7-42.1,7c-15,0-29.1-3.6-39.6-11.2C7,93.7,0,81.1,0,64.1
	c0-20.7,9.1-36.7,23.5-47.6C37.2,6.1,56,0.8,77.2,0.8c16,0,29,2.9,34,5.3l-8.3,23.9c-5.3-2.3-15.5-5-26.9-5c-10.8,0-20.7,2.4-28,7
	c-9.5,6.1-15.9,16.5-15.9,29.4c0,18.9,13.3,26.4,29.9,26.4c6,0,9.2-0.8,11.5-1.8L77,68.8H60l4.5-22.8H110L98.7,105.2z"/>
<path fill="#C3265D" d="M151.4,112.9c-29.4,0-51.1-18.1-51.1-49.2c0-18.9,7.1-35,18.9-46.1C131.1,6.5,147.2,0,165.7,0
	c29.8,0,51,17.5,51,49.7c0,18.8-6.8,34.6-18.4,45.8c-11.5,11-27.7,17.5-46.6,17.5H151.4z M155.6,89.3c7.1,0,13.6-3.1,18.6-8.1
	c7.1-7.1,11.3-18.3,11.3-29.8c0-15.7-6.1-27.8-23.1-27.8c-7.6,0-14.2,3.2-19.4,8.4c-7.4,7.4-11.6,18.8-11.6,29.8
	c0,17.5,8.4,27.5,24.1,27.5H155.6z"/>
<path fill="#C3265D" d="M227,112.9c-9.1,0-15.4-6.3-15.4-15.2c0-10.7,7.6-19.4,19.3-19.4c8.9,0,15.7,6.3,15.7,15.9
	c0,11-7.9,18.8-19.4,18.8H227z M222.3,73.3l9.1-71.4h30.2l-18.1,71.4H222.3z"/>
</svg>
